/* XPM */
static char *b3c339e3a8084010edaafe595de5dc76pGWn2sjPuALUxn1H[] = {
/* columns rows colors chars-per-pixel */
"32 32 200 2 ",
"   c #000003",
".  c #04040B",
"X  c #07080F",
"o  c #0B0A0F",
"O  c #0A070C",
"+  c #050711",
"@  c #050912",
"#  c #0B0C14",
"$  c #0D0E19",
"%  c #090611",
"&  c #100E14",
"*  c #0D121C",
"=  c #131215",
"-  c #181517",
";  c #14131B",
":  c #1A161B",
">  c #1C191C",
",  c #221B1D",
"<  c #151721",
"1  c #161821",
"2  c #1C1B23",
"3  c #231E21",
"4  c #291E21",
"5  c #1E222C",
"6  c #262224",
"7  c #2A2324",
"8  c #24242A",
"9  c #2A262A",
"0  c #2E282A",
"q  c #332A2B",
"w  c #3A2D2A",
"e  c #332826",
"r  c #3D312F",
"t  c #37312F",
"y  c #222731",
"u  c #2C2C31",
"i  c #312F31",
"p  c #2F3034",
"a  c #353135",
"s  c #3C3332",
"d  c #3A363A",
"f  c #3C3A3D",
"g  c #34343A",
"h  c #433632",
"j  c #4B3C35",
"k  c #443B3A",
"l  c #4D3E39",
"z  c #463A35",
"x  c #523F37",
"c  c #47382F",
"v  c #4E4037",
"b  c #4E413A",
"n  c #52433B",
"m  c #3A3B40",
"M  c #444244",
"N  c #4B4746",
"B  c #574843",
"V  c #5C4B43",
"C  c #554C4C",
"Z  c #5E5149",
"A  c #4B4E55",
"S  c #534F53",
"D  c #5E5B5C",
"F  c #545558",
"G  c #624E46",
"H  c #645249",
"J  c #6B564D",
"K  c #6E594F",
"L  c #65554B",
"P  c #675956",
"I  c #725B52",
"U  c #7D6559",
"Y  c #766158",
"T  c #5A606C",
"R  c #6D6B6B",
"E  c #676264",
"W  c #716563",
"Q  c #766962",
"!  c #736C6C",
"~  c #7B6C67",
"^  c #766E71",
"/  c #6F777C",
"(  c #757475",
")  c #74797D",
"_  c #7C7B7B",
"`  c #797777",
"'  c #656871",
"]  c #80695C",
"[  c #846D60",
"{  c #867166",
"}  c #84756F",
"|  c #857674",
" . c #837877",
".. c #947F72",
"X. c #8A807E",
"o. c #82817E",
"O. c #938379",
"+. c #757D82",
"@. c #7C7F81",
"#. c #807F80",
"$. c #7E8184",
"%. c #7B838B",
"&. c #828283",
"*. c #8D8581",
"=. c #83868B",
"-. c #86898B",
";. c #8A8A8D",
":. c #88878A",
">. c #958B85",
",. c #978A8B",
"<. c #808792",
"1. c #848C93",
"2. c #8A8C94",
"3. c #878E99",
"4. c #928E92",
"5. c #8F9496",
"6. c #8A929C",
"7. c #869299",
"8. c #959395",
"9. c #92949B",
"0. c #94989D",
"q. c #9B9D9D",
"w. c #9E9692",
"e. c #B4988F",
"r. c #AD979A",
"t. c #A39C9A",
"y. c #AA9E99",
"u. c #A79993",
"i. c #ADA19D",
"p. c #BAA49C",
"a. c #8D97A5",
"s. c #9196A1",
"d. c #9499A3",
"f. c #9C9CA2",
"g. c #9AA1A6",
"h. c #A5A5A4",
"j. c #ACAAAD",
"k. c #A8A6AF",
"l. c #B2A6A1",
"z. c #B4AAA5",
"x. c #BAAAA3",
"c. c #BAAEA9",
"v. c #B8A9A8",
"b. c #BEB2AE",
"n. c #B0B2AD",
"m. c #B7A9B0",
"M. c #AFB3B2",
"N. c #B1B5B4",
"B. c #B4B7BB",
"V. c #B4BABC",
"C. c #BAB8B6",
"Z. c #A3A5B2",
"A. c #C0ACA5",
"S. c #C2B2AB",
"D. c #CBB0A3",
"F. c #CBBCB5",
"G. c #CABBBC",
"H. c #C5B7B0",
"J. c #DEBFB2",
"K. c #BFC1BE",
"L. c #C9C1B8",
"P. c #D7C5BD",
"I. c #B4BAC3",
"U. c #BCBEC5",
"Y. c #BABDC8",
"T. c #B2BBCE",
"R. c #CDBBC2",
"E. c #BCC2C6",
"W. c #BDC1CA",
"Q. c #BAC8E3",
"!. c #C4C5C3",
"~. c #CACAC6",
"^. c #C3C6CB",
"/. c #C4C8CA",
"(. c #CDCECC",
"). c #C7C8C5",
"_. c #DBCDC4",
"`. c #D7CCCB",
"'. c #D1D1CE",
"]. c #D9D2C6",
"[. c #C5C9D6",
"{. c #DCCCD0",
"}. c #CCD0D3",
"|. c #D3D3D4",
" X c #D6D9DB",
".X c #D9D7DB",
"XX c #E1CEC4",
"oX c #E5D0C6",
"OX c #EAD3C6",
"+X c #E5D2C9",
"@X c #EBD6CB",
"#X c #F0D9CE",
"$X c #E5D9D4",
"%X c #ECDAD2",
"&X c #E5D6D9",
"*X c #E8D8DA",
"=X c #F3DFD4",
"-X c #F6E2D9",
";X c #D8D9E0",
":X c #F4E7E8",
/* pixels */
"(.!.;XG.m.-.N &.0.3.T.[. X.Xz.p.oX_.oXl._ _ #.&.:.;.;.4.F.%X$X_.",
"(.!. XR.m.8   & _ f.j.Y.Q.T.w.x.+XXXoXl.@.&.&.&.1.2.2.9.f.F.%X_.",
"~.!. X`.,.  # . ; :.c.x.C.Z.,.S.+XXXoXz.$.:.:.-.2.2.d.=.A ( {.+X",
"(.!.|.{.^   & & . d b.F.XXF.l.S.+XXX@Xc.=.-.=.;.1.d.' ;   S G.F.",
"(.).}.{.E   & O o .  ._.%X%XP.P.@XoX@XS.1.1.1.1.a.T . ; % S h.8.",
"(.!./.&XC   = o . . 2 P.-X%X+XXX@XOXOXH.1.1.5.g.F . # : # F =.) ",
"(.K.E.&XP   = = o # . D -X=X@XXX@X@XOXF.6.7.g.F   @ - , : E ( R ",
"'.!.^.&X|   & - - # . . >.@XXX%X-X=X#XP.0.0.A   # - , 4 9 ! ( ! ",
"'.~.}.&Xr.O O o & > = @ 3 k O.S.x.x.y.X.C a   # > 3 : - M _ ( ` ",
"'.~.|.*Xr.. O o # 3 0 : 6 q k C C N s 6 > = # - 3 : - > R _ ` ` ",
"|.~. X*X,.  O # - 6 q 6 6 9 6 6 0 > - - - 3 3 3 6 > - a _ _ _ ` ",
"(.!. X:X .  O > , 7 0 0 3 > ; - ; ; ; ; # : 6 q s s : M &._ _ _ ",
"/.E./.|.!   o - 0 7 3 , 3 = # - # $ # # ; ; 3 q k k 7 f :.&.&.&.",
"E.E.V.C.S   - , 7 7 , : : # @ ; @ @ @ + $ - 2 3 q z 6 N ;.&.&.$.",
"E.V.V.n.9 o , 6 , > > # @ # + @ + @ + + # # ; ; 3 a q E 8.5.8.t.",
"I.B.V.o.: , > - # = - > ; # @ # + @ @ @ # # ; : 2 6 9 ! L.].$XJ.",
"V.N.j.N > , - o . o a g 8 2 # # @ + # # # $ 9 f 9 : 9 d >._.F.D.",
"N.M.q.t > - o o o o M f ; u : @ @ @ $ $ ; ; 2 D M @ ; a ! L.z.e.",
"N.N.h.s > = @ O o o 6 m u p > @ + + $ $ 2 u g D 9 @ & 3 W F.b.p.",
" .*.*.s > = # O O @ @ > 8 : - # + + * < 2 u f u # # & 2 ~ A.c.x.",
"Q } } s , - o @ @ @ @ @ @ # @ + @ @ * 5 < ; # @ @ @ ; 9 X.b.i.i.",
"~ Q Q z 7 , = # @ @ @ @ @ @ + @ @ @ * y < $ # @ @ # : f >.z.y.y.",
"V Z K b e 7 = = # @ @ # @ @ @ @ + $ # y 8 * ; # # # 8 C u.y.y.y.",
"n L L B w 7 , , > = @ @ @ @ @ @ $ ; # < m < 2 < # ; 9 S t.t.8.4.",
"v L V V l w w w e 7 > = # # @ @ # # # # 8 ; 2 2 : 9 s R %.+./ ) ",
"n V n n B l h h h r q > > # @ @ + . ; ; . ; : 6 k z W ) +.+./ +.",
"n B n n B H n j j j r 3 > - # # @ @ ; # $ ; ; 0 B } 8.%.8.1.%.<.",
"n n j n B B H V B n l w 7 , - = # = = # # # - s ~ t.q.%.9.6.<.3.",
"n n j j n n G J H G V n z q 4 : - 3 3 = - > h Y u.k.f.1.s.s.3.6.",
"j b j j b n n n J I K K H V j e , , , w V J { i.k.k.g.6.s.d.a.a.",
"c v n n j n n B B G J I I I K G l j V U [ O.c.^.[.U.W.W.Y.I.I.I.",
"j n j j j n G V x V H H K I I Y U U ] { ..u.!.E.U.U.B.U.U.U.U.W."
};
