/* XPM */
static char *_367aad8722146e9d44e1c2b6b26e68fWdV7eu66UyYdtHdv[] = {
/* columns rows colors chars-per-pixel */
"32 32 221 2 ",
"   c #F3F3F3",
".  c gray95",
"X  c #F2F2F1",
"o  c #F1F1F0",
"O  c #F0F0EE",
"+  c #E7E4DD",
"@  c #F2F1F1",
"#  c #F0EFEE",
"$  c #CEC0A7",
"%  c #EAE7E1",
"&  c #F3F3F4",
"*  c #F1F0EF",
"=  c #EEEDEB",
"-  c #F2F3F3",
";  c #BEA88B",
":  c #D8CDBD",
">  c #F3F4F4",
",  c #F1F1EF",
"<  c #F3F3F2",
"1  c #EFEEED",
"2  c #EBEAE7",
"3  c #F4F5F5",
"4  c #CBBCAB",
"5  c #CFC1B2",
"6  c #ECEAE6",
"7  c #EFEEEC",
"8  c #EDEAE6",
"9  c #F4F4F5",
"0  c #E2DBD1",
"q  c #D7CDBC",
"w  c #E8E5DE",
"e  c #E5E2DB",
"r  c #DED6C4",
"t  c #E4DDD0",
"y  c #EDEAE4",
"u  c #D8D0BF",
"i  c #D7CFBA",
"p  c #CABA96",
"a  c #E5E1D7",
"s  c #EBE8DF",
"d  c #D9D2C3",
"f  c #C8BCA1",
"g  c #BDA87F",
"h  c #CBBEA4",
"j  c #D6CCB9",
"k  c #E2DDD2",
"l  c #ECEAE5",
"z  c #EEEDEA",
"x  c #F3F2F1",
"c  c #F1EEE9",
"v  c #F0EEEA",
"b  c gray94",
"n  c #EDEBE8",
"m  c #D7D2C6",
"M  c #C6BCA7",
"N  c #A1855D",
"B  c #876035",
"V  c #A08158",
"C  c #C0AD8F",
"Z  c #CFC1A9",
"A  c #D9CEBA",
"S  c #DFD7C9",
"D  c #E4DDD3",
"F  c #E6E1D9",
"G  c #F0EFED",
"H  c #EFECE5",
"J  c #D5D5C8",
"K  c #8CBBD0",
"L  c #81BDD9",
"P  c #AACBD7",
"I  c #DBE4E9",
"U  c #F0F1F1",
"Y  c #E1DFD8",
"T  c #D5CFC3",
"R  c #CFC8B9",
"E  c #A28F73",
"W  c #7B552F",
"Q  c #967140",
"!  c #C3B293",
"~  c #E6E2DA",
"^  c #EDEBE6",
"/  c #EDEAE5",
"(  c #EBE7DD",
")  c #DACEAF",
"_  c #7BA9BC",
"`  c #2B8ACD",
"'  c #2A6794",
"]  c #50AADB",
"[  c #94BDCF",
"{  c #7DACD5",
"}  c #ABBAC1",
"|  c #DCD7CC",
" . c #C8BFAF",
".. c #8D795D",
"X. c #714D2E",
"o. c #886237",
"O. c #B59D77",
"+. c #D3C8B4",
"@. c #E9E4D6",
"#. c #D7C9A7",
"$. c #C8BA99",
"%. c #5299C5",
"&. c #246EA7",
"*. c #202F43",
"=. c #2C6995",
"-. c #71AECA",
";. c #769BBE",
":. c #B5C0C8",
">. c #D5CEC0",
",. c #C9C0AF",
"<. c #9D8C72",
"1. c #91744D",
"2. c #A58759",
"3. c #B59D75",
"4. c #C3B090",
"5. c #D2C6AE",
"6. c #ECE8DE",
"7. c #D6C8A6",
"8. c #CAB790",
"9. c #C5B189",
"0. c #6D97AB",
"q. c #2570AA",
"w. c #256292",
"e. c #2975AC",
"r. c #78AABC",
"t. c #C9CABD",
"y. c #EFF0F2",
"u. c #ECEBE8",
"i. c #D8D2C4",
"p. c #C6B79A",
"a. c #CCBEA9",
"s. c #BCA991",
"d. c #C4B39B",
"f. c #CFC2AD",
"g. c #D9CFBE",
"h. c #EAE7E2",
"j. c #F2F2F3",
"k. c #EDE9E0",
"l. c #D8CBAC",
"z. c #C8B48C",
"x. c #BCA57B",
"c. c #BDA67A",
"v. c #A99C7C",
"b. c #5B8CAA",
"n. c #368BC9",
"m. c #4D98C6",
"M. c #A4A790",
"N. c #C7C3B0",
"B. c #EFF1F3",
"V. c #E4DFD7",
"C. c #EBE9E4",
"Z. c #EBE9E6",
"A. c #E7E3DE",
"S. c #E8E5E0",
"D. c #ECE9E5",
"F. c #EAE7E3",
"G. c #EEECE4",
"H. c #D5C7A7",
"J. c #C6B38C",
"K. c #C1AB82",
"L. c #BAA276",
"P. c #B49A6C",
"I. c #B0986C",
"U. c #A09475",
"Y. c #AD9C76",
"T. c #BBA173",
"R. c #DED5C2",
"E. c #F2EFEB",
"W. c #DACEB2",
"Q. c #C1AB81",
"!. c #BAA277",
"~. c #B49B6D",
"^. c #B2986B",
"/. c #B19667",
"(. c #B49968",
"). c #B49866",
"_. c #B09361",
"`. c #C5B18D",
"'. c #EFEDE9",
"]. c #F3F2F2",
"[. c #E6EEF2",
"{. c #BAC8C4",
"}. c #C3AF85",
"|. c #B89F71",
" X c #B09669",
".X c #AB8F60",
"XX c #B29767",
"oX c #AF9362",
"OX c #AD8F5C",
"+X c #A98A57",
"@X c #A78856",
"#X c #B9A17B",
"$X c #E7E1D7",
"%X c #F4F3F3",
"&X c #9DCEEB",
"*X c #4B95C3",
"=X c #A3926F",
"-X c #AB8D5A",
";X c #A78855",
":X c #A68755",
">X c #A18153",
",X c #A1825A",
"<X c #B09777",
"1X c #CFC3B2",
"2X c #EBE9E5",
"3X c #95C5E6",
"4X c #4495D2",
"5X c #9DA298",
"6X c #C7B28D",
"7X c #C7B495",
"8X c #CBBBA2",
"9X c #CFC1AF",
"0X c #DAD1C8",
"qX c #E5E1DE",
"wX c #EFEFEF",
"eX c #EDF0F2",
"rX c #DDE8EF",
"tX c #E8EBED",
"yX c #F2F1F0",
"uX c #F4F5F6",
"iX c white",
/* pixels */
"  .             . . . . . . . .                 . . . . . .   . ",
"  .             . . . . . . . .     .     .     . . . . . .   . ",
"  .             . . . . . . . .       . .   .   . . . . . .   . ",
".   . . . . . .                 . .   X o   . .             .   ",
".   . . . . . .         .       . .   O + @   .             .   ",
".   . . . . . .           . X     .   # $ % &   .           .   ",
"  .             . . . .   . * = @     - ; : > ,   . . . . .   . ",
"  .             . . . . .   < 1 2 ,   3 4 5 6 7   . . . . .   . ",
"  .             . . . . . .     O 8 o 9 0 q w .   . . . . .   . ",
".   . . . . . .               .   7 e o r t y .             .   ",
".   . . . . . .                   . u i p a s &           . .   ",
".   . . . . . .     .         <   o d f g h j k l z 7 * .   .   ",
"  .             .     x c v b     n m M N B V C Z A S D F G   . ",
"  .           .     H J K L P I U Y T R E W Q ! ~ ^ / o * @   . ",
"  .         .     ( ) _ ` ' ] [ { } |  ...X.o.O.+.n & .     . . ",
".   . . . .     @.#.$.%.&.*.=.-.;.:.>.,.<.1.2.3.4.5.6 &   . .   ",
".   . . .     6.7.8.9.0.q.w.e.r.t.y.u.1 i.p.a.s.d.f.g.h..   .   ",
".   . . j.  k.l.z.x.c.v.b.n.m.M.N.B.  . V.C.. Z.A.S.D.F..   .   ",
"  .   .   G.H.J.K.L.P.P.I.U.Y.T.R.>   .                   .   . ",
"  . .   E.W.Q.!.~.^././.(.)._.`.'.        . . ].    . . . .   . ",
"  .   [.{.}.|. X.XXXoXOX+X@X#X$X& .             . . . . . .   . ",
".   %X&X*X=XOX-X;X:X>X,X<X1X2X> . . . . . . . .             .   ",
".     3X4X5X6X7X8X9X0XqXwX9   . . . . . . . . .             .   ",
". -   eXrXtXyX  9 uX9 >     .   . . . . . . . .             .   ",
"  . .   %X        . . . . . . .                 . . . . . .   . ",
"  .             . . . . . . . .                 . . . . . .   . ",
"  .             . . . . . . . .                 . . . . . .   . ",
".   . . . . . .                 . . . . . . . .             .   ",
".   . . . . . .                 . . . . . . . .             .   ",
".   . . . . . .                 . . . . . . . .             .   ",
".                                                           .   ",
"  .             . . . . . . . .                 . . . . . .   . "
};
