/* XPM */
static char *e44837bbeb1f46da9fdeab28749e35afnEb4fpuATuaw8t5U[] = {
/* columns rows colors chars-per-pixel */
"32 32 223 2 ",
"   c #161519",
".  c #221D1D",
"X  c #27271D",
"o  c #34391F",
"O  c #1C1C22",
"+  c #231D20",
"@  c #252224",
"#  c #2B2525",
"$  c #26252A",
"%  c #292729",
"&  c #2B292D",
"*  c #2A2924",
"=  c #332D2C",
"-  c #342A26",
";  c #3B312E",
":  c #2C2C31",
">  c #2B2D36",
",  c #322D31",
"<  c #343235",
"1  c #393537",
"2  c #42322C",
"3  c #58372E",
"4  c #423632",
"5  c #4A3B34",
"6  c #523D35",
"7  c #5A3B32",
"8  c #603A33",
"9  c #3E4B19",
"0  c #3C4422",
"q  c #4B5629",
"w  c #5E4136",
"e  c #5A473B",
"r  c #585A3A",
"t  c #4B542E",
"y  c #664636",
"u  c #644B3D",
"i  c #6B4C3B",
"p  c #684439",
"a  c #714E3D",
"s  c #6A523F",
"d  c #76503E",
"f  c #58642D",
"g  c #5D6B33",
"h  c #636C3A",
"j  c #6B783A",
"k  c #717F38",
"l  c #3E3E43",
"z  c #433F42",
"x  c #454243",
"c  c #47474B",
"v  c #544C4A",
"b  c #595949",
"n  c #534E50",
"m  c #5C5958",
"M  c #684E42",
"N  c #645145",
"B  c #6B5344",
"V  c #63534B",
"C  c #6A544A",
"Z  c #665B48",
"A  c #735445",
"S  c #7B5C4A",
"D  c #775848",
"F  c #655C57",
"G  c #765F54",
"H  c #734841",
"J  c #5F6440",
"K  c #686A47",
"L  c #76644C",
"P  c #6D7745",
"I  c #717E43",
"U  c #74784D",
"Y  c #6D645D",
"T  c #666058",
"R  c #72635A",
"E  c #74695D",
"W  c #796B5B",
"Q  c #786857",
"!  c #797E5E",
"~  c #75775B",
"^  c #615E60",
"/  c #6A6767",
"(  c #726A63",
")  c #7A6D64",
"_  c #716D6E",
"`  c #7D7364",
"'  c #7C7269",
"]  c #767768",
"[  c #7A7776",
"{  c #716E72",
"}  c #835D48",
"|  c #86624D",
" . c #8B6553",
".. c #8D6B56",
"X. c #8C6C5C",
"o. c #846855",
"O. c #926A54",
"+. c #966E5C",
"@. c #8B795D",
"#. c #96735A",
"$. c #856C61",
"%. c #8D6E61",
"&. c #837164",
"*. c #8C7365",
"=. c #83756B",
"-. c #847C6A",
";. c #8D7B67",
":. c #937463",
">. c #987B67",
",. c #857B73",
"<. c #8A7D74",
"1. c #837977",
"2. c #A17A63",
"3. c #A77C67",
"4. c #79823F",
"5. c #7B8A4A",
"6. c #778346",
"7. c #7C8256",
"8. c #7C836B",
"9. c #869339",
"0. c #818B4D",
"q. c #899546",
"w. c #868956",
"e. c #8D9755",
"r. c #949959",
"t. c #858768",
"y. c #97856B",
"u. c #989967",
"i. c #8D8374",
"p. c #8D837C",
"a. c #89847C",
"s. c #948474",
"d. c #9A8474",
"f. c #9D8B74",
"g. c #92837B",
"h. c #9C8B7B",
"j. c #948C7F",
"k. c #9C9A77",
"l. c #88906B",
"z. c #A48266",
"x. c #A5836D",
"c. c #A48574",
"v. c #A48B75",
"b. c #AB8D7A",
"n. c #A88C77",
"m. c #B38E78",
"M. c #B38D75",
"N. c #A8977A",
"B. c #B69074",
"V. c #B3937B",
"C. c #BA947D",
"Z. c #B59A7C",
"A. c #BC9D7D",
"S. c #B89874",
"D. c #AC916F",
"F. c #9EA866",
"G. c #B7A57F",
"H. c #C3987C",
"J. c #7F7D80",
"K. c #7B858D",
"L. c #8B8685",
"P. c #948B82",
"I. c #9B8E82",
"U. c #918B88",
"Y. c #9B938C",
"T. c #989489",
"R. c #868C92",
"E. c #9C9C9C",
"W. c #979495",
"Q. c #A29284",
"!. c #A2948B",
"~. c #AA9986",
"^. c #BC9681",
"/. c #BA9B84",
"(. c #B89A85",
"). c #A69B94",
"_. c #B8A186",
"`. c #AAA59B",
"'. c #B8A893",
"]. c #B4B99D",
"[. c #A29FA0",
"{. c #AAA8A7",
"}. c #B4ADA6",
"|. c #B4B2AB",
" X c #B9B5A9",
".X c #BCBBB6",
"XX c #B6B2B2",
"oX c #AFB5B3",
"OX c #C39C84",
"+X c #C79C87",
"@X c #C3A48D",
"#X c #CBA68B",
"$X c #CEAC8D",
"%X c #C9A686",
"&X c #D6A88C",
"*X c #D1B28B",
"=X c #CCAB93",
"-X c #CDAF9A",
";X c #C4AB94",
":X c #D1AE94",
">X c #CCB39B",
",X c #C6B29A",
"<X c #D4B294",
"1X c #D5B69B",
"2X c #C3B782",
"3X c #E0B29D",
"4X c #C9B6A1",
"5X c #D5BCA5",
"6X c #C2BDB6",
"7X c #E0B8A1",
"8X c #DCC7AE",
"9X c #D9C4AB",
"0X c #C8C2B8",
"qX c #DAC9B3",
"wX c #EAC2AC",
"eX c #E5D3B8",
"rX c #C9C7C3",
"tX c #D2CECA",
"yX c #D9D3CA",
"uX c #DAD9D4",
"iX c #E6D9C6",
"pX c #E4E2DE",
"aX c #FFFFFE",
/* pixels */
"rX`.[ / ( ) i.b.yXaX|.{ [ j.'.qXiXyXyX0X~.j.( .X,X@.W _.'.@X~ b ",
"0XT.E [ T Y Y i..XtX}.`.4X5X8X8X8X8XeXqX0X9Xh.j.Q.z.E =.Z.V.i.] ",
".X{.) a.( T ' Y m -.,X'.>X9X5X4X;X;X>X8XeX5X_.s.W D.E &.*X#Xv.b ",
"/ U.,.( ( Y ' ( <.~.h.&.f./.>X5X>X@X@X>X8X8X>Xh.` A.;.E s.%XD.Z ",
"pXU.F ] ) ) ,.I.s.d.n.h.;.n.(.;X-X-X-X>X5X1X_.~.j.S.N.E &.(.n.;.",
"aX|.P.Y.( ' I.~.h.d.~.~.f.c.V./.@X-X1X>X=X/.V.V.~./.Z.' ;.f.( d.",
"aXtX`..X,.=.~.s.*.>.c.(.@X(.(.@X=X1X5X5X5X-XV.n.v.Z.*X,.) V.s.=.",
"aX0X X.X' I.Q.W *.d.b.^.^.(.^.^.OX=X:X:X:X1X@Xn.>.f.$Xh.-.N./.b.",
"rX}.0XrXp.Q.) R d.n.c.c.b.V.V.C.C.OX#X#X=X=X1XA...o.%X'.` s.h.d.",
"|.`.6X6Xh.=.) s.n.b.c.c.V.C.C.C.^.OX#X=X:X<X1X1Xz.N f.eXp.;.f.W ",
"uX`.0X0X,.' ` d.d.d.d.c.m.C.^.C.C.OX%X$X:X:X<X1X_.B L 2XN.t.-.Q ",
"tX}.0XrXg.` F $.*.*.:.:.>.x.m.m.M.B.C.OX%X$X$X<XA.B B r.q.0.e.u.",
"tXp.`.).<.' V E $.:.:.X.X.:.>.3.2.2.x.B.OX%X%X%XZ.s L q.9.9.q.9.",
"6Xp. XY.,.g.Y R G C C N C D L ....| S D S ..2.B.A.L r.e.4.4.5.j ",
"XX{.yXW.=.<.c 1 1 < ; ; ; 4 6 D S u 5 2 5 e e N Z b w.6.j h P h ",
"{.E.{.U.,.,.c : : $ % % $ & ; 5 6 ; = @ @ * X = = e @.7.5.5.h q ",
"E.[.oX1.g.Q./ > < & % % $ $ ; :.X.# - . . X - 4 5 @.w.t r g t 0 ",
"W.{. Xa.g.I.<.l > : = & = $ 4 ^.OX; @ + @ # ; = v y.K r ~ K - X ",
"W.}.tX1.1.Y.Q.) m z < , , & B +X7Xo.# # + # ; N /._.y.u.u.h 0 X ",
"R.).}.L.!.!.!.$.%.%.%.X.G u  .#X7XH.S G o.>.B.&X&XN.N.k.U r t 0 ",
"K.[.|.).).).!.W $.%.:.:. .M 3.3XwX&XO.3.OX&X&X&X%X@.K U Q Z t q ",
"R.W.`.).I.P.!.R Q X.+.X.A A 2.+X&X&X+.} 3.B.H.H.%Xu.h K U I k 6.",
"U.|.0XU.p.p.I.R C D S A M 7 7 D O. .| d } #.z.B.%XG.u.F.r.0.I w.",
"8.].'.1.,.I.I.R V C M u A y 3 7 a } #.| i S O.z.S.S.w.e.U P g f ",
"l.l.T.,.=.,.P.&.N C B e 6 w w y a  .| i i D O.z.>.;.0.6.j 6.0.g ",
"8.! -.<.' ' Y.<.C C A e 6 3 3 3 8 H D y 7 A #.#.V / ~ h 5.5.I k ",
"] t.i.<.=.I.L./ F N B u u w 7 3 7 p } } y i o.L v n x u.U t 9 q ",
"! ] i.<.,.Y._ m m V M u B D i y A  .2.#.D s #.&.x x m a.[ [ ! f ",
"] ] t.=.,.J.^ c x v B e u D | O.3.C.C.2.S B V x n F / F m ^ L.! ",
",.k.!.;.p.m ^ x & : 1 6 e u A  .+.2.>.o.e = < x n n z < %   % / ",
"` t.P.L./ x 1 c 1 % O @ ; 6 e u i A u - @ $ < 1 < % $ % @ 1 l m ",
"[ [ [ / / c : & < & O O   . # ; 2 -     @ # $ $ @ $ & < c { L.L."
};
