/* XPM */
static char *_8f8215acd694922b4dd6644b4ae0379DdPLHE0YF4G946X9[] = {
/* columns rows colors chars-per-pixel */
"32 32 200 2 ",
"   c #48433F",
".  c #4F4B48",
"X  c #54504C",
"o  c #7E6144",
"O  c #6C6763",
"+  c #7F7974",
"@  c #97651A",
"#  c #A5701F",
"$  c #BD7E1D",
"%  c #88633A",
"&  c #AB7429",
"*  c #B57B25",
"=  c #C17F1A",
"-  c #98775B",
";  c #A97E48",
":  c #A27E5C",
">  c #957962",
",  c #88796D",
"<  c #B78033",
"1  c #DE9609",
"2  c #CA891C",
"3  c #DF9912",
"4  c #E89F08",
"5  c #E69C0B",
"6  c #E09C18",
"7  c #ECA307",
"8  c #F4A602",
"9  c #F6AB04",
"0  c #F5AE07",
"q  c #F6B507",
"w  c #F9B406",
"e  c #FABD06",
"r  c #F5B50C",
"t  c #EAAA1F",
"y  c #E9A718",
"u  c #F2B313",
"i  c #F3B619",
"p  c #F6BB1A",
"a  c #F6BB15",
"s  c #C28524",
"d  c #C78924",
"f  c #D89926",
"g  c #CD973E",
"h  c #C48B36",
"j  c #E4A523",
"k  c #EAAC21",
"l  c #EEBA2B",
"z  c #EFB527",
"x  c #F3B925",
"c  c #E4AE3C",
"v  c #E6B139",
"b  c #F1BA34",
"n  c #FBC305",
"m  c #FCCB07",
"M  c #FCCB08",
"N  c #FDCD1B",
"B  c #FBC612",
"V  c #F8CB2F",
"C  c #FDD62D",
"Z  c #FDD425",
"A  c #AD8148",
"S  c #B08149",
"D  c #AC875F",
"F  c #B78C58",
"G  c #95816F",
"H  c #998472",
"J  c #AB8965",
"K  c #A08368",
"L  c #B18C63",
"P  c #BC9668",
"I  c #BB9C78",
"U  c #D49E49",
"Y  c #CA994A",
"T  c #E3AC47",
"R  c #EDBB47",
"E  c #E7B34B",
"W  c #E6B453",
"Q  c #EDBD57",
"!  c #C29F6D",
"~  c #C7A16E",
"^  c #DDB269",
"/  c #CFAA75",
"(  c #CCA979",
")  c #D6AD73",
"_  c #D0AD78",
"`  c #DCB172",
"'  c #E6B96E",
"]  c #E1B060",
"[  c #E9BF77",
"{  c #F3C344",
"}  c #F7CA44",
"|  c #FBD34C",
" . c #F3C855",
".. c #FBD652",
"X. c #FCD758",
"o. c #F5CD64",
"O. c #FDDC64",
"+. c #FDDC6B",
"@. c #FBD760",
"#. c #E8C378",
"$. c #F4CF78",
"%. c #FCDC74",
"&. c #FEE27C",
"*. c #918A84",
"=. c #9A948F",
"-. c #9F9993",
";. c #AD9D8D",
":. c #A29383",
">. c #B49D85",
",. c #A79D94",
"<. c #BAA289",
"1. c #A2A09F",
"2. c #BDAC9E",
"3. c #B3A69A",
"4. c #AAA8A6",
"5. c #AEA9A5",
"6. c #B1AFAC",
"7. c #B9ACA1",
"8. c #B4B1AD",
"9. c #BBB2AA",
"0. c #BEB9B4",
"q. c #B7B4B2",
"w. c #C6A581",
"e. c #D5B387",
"r. c #D8B88A",
"t. c #C4AD97",
"y. c #C4AF99",
"u. c #C8AF95",
"i. c #C5B19C",
"p. c #CBB39B",
"a. c #D6B692",
"s. c #DEBE94",
"d. c #D5BA9B",
"f. c #C5B5A4",
"g. c #C7B7A9",
"h. c #D6BEA5",
"j. c #C3BBB4",
"k. c #CABDB1",
"l. c #C3BFBB",
"z. c #DCC19A",
"x. c #EFCC84",
"c. c #E1C29B",
"v. c #E5CA9C",
"b. c #E5C592",
"n. c #F5D88D",
"m. c #FEE382",
"M. c #FEE68C",
"N. c #FDE896",
"B. c #DCC3A2",
"V. c #DCC3AA",
"C. c #DFC8AB",
"Z. c #C4C1BE",
"A. c #CCC3BB",
"S. c #CCC0B5",
"D. c #DECAB5",
"F. c #D3C6BA",
"G. c #DBCBBD",
"H. c #D7C7B7",
"J. c #DCD0BC",
"K. c #E4C9A4",
"L. c #E2C8A5",
"P. c #E5D0AF",
"I. c #E3CDB4",
"U. c #E1CFBB",
"Y. c #E7D8BA",
"T. c #F5E0AC",
"R. c #CBC7C2",
"E. c #CCC9C6",
"W. c #CECCCA",
"Q. c #D3CAC3",
"!. c #D3CECA",
"~. c #D9CFC5",
"^. c #D6D0CB",
"/. c #DBD3CC",
"(. c #D5D4D2",
"). c #DBD6D2",
"_. c #DCD9D7",
"`. c #DCDCDB",
"'. c #E2D3C4",
"]. c #E1D6CD",
"[. c #E2DBD5",
"{. c #E2DEDB",
"}. c #EBE2D3",
"|. c #E6E1DD",
" X c #E9E3DC",
".X c #FAF1DB",
"XX c #E5E4E3",
"oX c #E9E5E3",
"OX c #ECE9E6",
"+X c #EEEDEC",
"@X c #F3EEE5",
"#X c #F1EEEB",
"$X c #F4F2EF",
"%X c #FAF4E6",
"&X c #EFF0F0",
"*X c #F3F3F3",
"=X c #F6F7F8",
"-X c #F7F8F9",
";X c #F8F8F8",
":X c #F9F8F6",
/* pixels */
"*X*X+X*X*X*X*X*X&X*X&X*X&X*X#X*X*X*X*X*X*X*X*X*X*X#X*X*X*X&X*X*X",
"*X*X*X*X*X*X*X*X#X+X|.XXXXOXOXOXXXOXOXOX*X*X*X*X*X*X&X*X*X*X*X*X",
"*X*X*X*X*X*X*XOX+X|.{.{.oXOX#X#X@X$X*X$X#X#X*X*X*X*X*X*X*X*X*X*X",
"*X*X*X*X*X*XXX{./.Q.Q.^.].[.|.oX#X$X$X#XOXOX&X&X*X*X*X*X*X*X*X*X",
"*X*X*X*X*X#X{.R.7.,.7.j.F.Q.^./.[.[.{. XoXoXoX*X*X*X*X*X*X*X*X*X",
"*X*X*X*X*X*X).9.H H ;.i.f.k.F.^./.~./.[.[.[.{.&X*X*X*X&X*X#X*X&X",
"*X#X*X*X*X#X!.3.> : >.t.p.p.p.D.U.~.k.[.{.).oX*X*X*X*X*X*X*X*X*X",
"*X*X*X*X&X*XH.>.- D P w.e.a.a.V.U.h.c.].].h.f.&X#X{.OX*X*X*X*X&X",
"*X*X*X&X;X&Xi.J D J Y U h.h.c.b.P.'.'.'.P.; , +X#X X}.OX$X=X#X=X",
"*X*X*X*X&X-X<.& ; J ( ) h.I.c.#.v.'.U.c.T @ > (._.Q.U. X*X#X=X+X",
"*X*X*X*X*X*Xu.< h ; w.p.^ v.'.I.'.K.b.W y # j.=X*X+XE. XOX=X#X=X",
"*X*X*X*X+X;Xd.f 5 < P p.s.c.U.'.'.I.' R u # A.*X*X&XW.|.OX&X=X+X",
"*X&X*X*X*X*XB.j 0 2 F / a.h.I.h.L.c.Q { i & Q.:X&X=XE.).#X=X#X-X",
"*X*X*X*X&X-XB.j w 4 h ! e.V.L.I.I.x.{ | i * Q.$X*X*X(.E.OX#X=X+X",
"*X*X*X*X=X*XL.k w 8 6 U ) e.s.b.v. .....i * Q.-X&X-X^.l.#X*X&X-X",
"*X*X&X*X&X-XV.k w 8 8 u v ` s.b.[  .+.X.i * Q.*X*X*X|.q.#X+X=X+X",
"*X*X*X*X;X*XL.t 0 8 8 n M l ^ ' R +.m.X.p * F.;X*X:X`.6.#X*X&X*X",
"*X*X*X*X+X-XB.t 9 8 8 e m m l E V M.M.O.a * k.*X*X&XXX4.+XOX*X&X",
"*X&X;X&X=X&XB.t 9 8 8 n M M M x C N.N.O.p * k.=X*X*X{.4.#X+X*X-X",
"*X*X&X*X&X-Xz.t 9 8 9 n M m M M C N.M.O.p * f.=X*X*XXX4.+XoX*X+X",
"*X*X*X&X*X*Xz.t 8 8 w e n M M M Z m.m.+.p $ i.=X*X*XW.8.*X+X*X*X",
"*X*X*X*X*X=Xa.t 9 9 9 w e n n M N %.&.+.x = <.=X*XXX!.+X;X+X*X*X",
"*X*X*X*X*X*Xe.y 8 8 9 w e n n n N O.&.&.z = J _.`.|.*X:X*X*X*X*X",
"*X*X*X*X*X*X_ y 8 8 9 w e n n n B O.&.M.l 2 % 6.$X*X$X*X*X*X*X*X",
"*X*X*X*X*X&X~ 3 7 8 8 q e e n n a @.%.m.b $ o R.$X+X+X*X*X*X*X*X",
"*X*X*X*X*X+XI d 1 7 8 0 q q q r a X.+.%.c ; , 4.+X$X*X*X*X*X*X*X",
"+X*X*X*X*XXX3.P g f 3 7 0 r r u x o.$.x.( =.+ `.*X*X*X*X*X*X*X*X",
"*X*X*X*X=X_.O -.f.r.^ W R { V {  .n.T.Y.S.3.. 0.*X*X*X*X*X*X*X*X",
"*X*X*X*X*Xq.X ,.!.). X%X.X.X.X.X.X%X$XOX(.j.. 4.*X*X*X*X*X*X*X*X",
"*X*X*X*X-X6.=.0.j.Z.j.2.2.t.u.u.p.S.F.!.A.9.*.4.*X*X*X*X*X*X*X*X",
"*X*X&X*X&X+XW.Z.Z.Z.j.2.<.I I I <.f.A.R.Z.0.W.+X*X*X*X*X*X*X*X+X",
"*X&X*X&X=X&X=X+X+X`.`.(._._.(.^.^.^._.`.XX&X*X*X*X*X*X*X+X-X+X;X"
};
