/* XPM */
static char *f80f0bcc35324ea2a7202ce61fd9aa3cTpT7GvTtXZFmzunU[] = {
/* columns rows colors chars-per-pixel */
"32 32 148 2 ",
"   c #C9B28E",
".  c #CCBB97",
"X  c #CCBE9B",
"o  c #CDBE9B",
"O  c #CAB08C",
"+  c #C9AF8B",
"@  c #C7AB87",
"#  c #CBB794",
"$  c #CBB28F",
"%  c #C8AD8A",
"&  c #CAB591",
"*  c #CCBC99",
"=  c #CBB38F",
"-  c #C8AA86",
";  c #C8AC88",
":  c #CAB491",
">  c #CAB490",
",  c #CAB18D",
"<  c #C9AB87",
"1  c #C9AC88",
"2  c #CAB18E",
"3  c #C8AA87",
"4  c #C8AE8B",
"5  c #CDBF9B",
"6  c #CBB894",
"7  c #CBB490",
"8  c #C9B08D",
"9  c #CBB895",
"0  c #CCB995",
"q  c #CAB28E",
"w  c #CBBC99",
"e  c #CCBC98",
"r  c #CBB996",
"t  c #CCB894",
"y  c #C9AD8A",
"u  c #C8AB87",
"i  c #C9B591",
"p  c #C9B08C",
"a  c #CBBB98",
"s  c #CCB692",
"d  c #C7A884",
"f  c #C9AF8C",
"g  c #CBB591",
"h  c #C9AD89",
"j  c #C8A883",
"k  c #C9B18E",
"l  c #CDC09D",
"z  c #CCB794",
"x  c #CAB38F",
"c  c #CCBA97",
"v  c #C7A984",
"b  c #C8B08D",
"n  c #CDBD9A",
"m  c #CDB995",
"M  c #CAB693",
"N  c #CBB793",
"B  c #CAB794",
"V  c #C8A783",
"C  c #CAB592",
"Z  c #C8AD89",
"A  c #CAB692",
"S  c #C9B18D",
"D  c #CBB692",
"F  c #CCB895",
"G  c #CAAC87",
"H  c #C7A783",
"J  c #C9B692",
"K  c #CAB08B",
"L  c #C8AF8B",
"P  c #CBB995",
"I  c #C9B28F",
"U  c #C9B490",
"Y  c #CCB793",
"T  c #C8A884",
"R  c #C7A985",
"E  c #C9A985",
"W  c #C9AE8A",
"Q  c #CAB08D",
"!  c #CBB28D",
"~  c #CBB592",
"^  c #CAB390",
"/  c #CCB591",
"(  c #C8AE8A",
")  c #CDBC98",
"_  c #C9AE8B",
"`  c #CBBA97",
"'  c #CBB18D",
"]  c #CBB28E",
"[  c #CAAE8A",
"{  c #CCBA96",
"}  c #CBB491",
"|  c #CCBB98",
" . c #C9B38F",
".. c #CCBD99",
"X. c #CEBF9B",
"o. c #C9AB86",
"O. c #C8B18D",
"+. c #C8AB88",
"@. c #CBB390",
"#. c #CAB28F",
"$. c #CAB793",
"%. c #CDBF9C",
"&. c #C7A986",
"*. c #CDBC99",
"=. c #CAAF8B",
"-. c #C8A985",
";. c #C9B390",
":. c #CBB693",
">. c #CCB996",
",. c #CCBE9A",
"<. c #C7A682",
"1. c #CCBD9A",
"2. c #CAB894",
"3. c #CAAF8A",
"4. c #CBBB97",
"5. c #CAB996",
"6. c #CAAF8C",
"7. c #CAAE89",
"8. c #CBBA96",
"9. c #CDBA96",
"0. c #CDBD99",
"q. c #CDBB98",
"w. c #CDBB97",
"e. c #C9AC89",
"r. c #CCB592",
"t. c #C9B491",
"y. c #CBBC98",
"u. c #CCB38F",
"i. c #C7A885",
"p. c #CAB895",
"a. c #C9AF8A",
"s. c #CCB490",
"d. c #C8A885",
"f. c #C8B08C",
"g. c #CAAD89",
"h. c #CAB28D",
"j. c #C8B18E",
"k. c #CABA96",
"l. c #CDC09C",
"z. c #C9AD88",
"x. c #CAB18C",
"c. c #CAAE8B",
"v. c #C9AA86",
"b. c #C7AA86",
"n. c #CBB08C",
"m. c #C8AC89",
"M. c #CDBA97",
"N. c white",
/* pixels */
"  . X o O + O @ # $ % & * = - ; : > , < 1 2 3 4 5 6 & 7 8 9 0 q ",
"% w e r t q y u i t + p a s d f : 0 1 g 2 h j k l z x > p r c , ",
"v 4 x b n q > m , M N p B s V p C , Z n , ; t A X t S & D & F O ",
"G d H ; & q C J A x 8 , : g O x D K L P O I l D a . , U 9 & N 8 ",
"Y T h < R D , E + + W Q x   = 8 & C ! 4 q ~ ~   e . W p ^ c q p ",
"t - : / h + ( c 7 1 + q x q , 8 Y ( g W M n s ( e ) 1 _ f ` ' L ",
"g u k c ] [ 2 C 2 , { 7 6 } x r | O  .D i * ^ k ..X.o.p W O.s +.",
"@.1  ...D U g q #.A o # # ^ x I $.. x #.k { W & X %., x o.&.*.1 ",
"N =.& A { 7 x ^ q D * { F p p + I 6 8 q 4 N x { ..o x 7 -.Z ;.= ",
"P N :.^ w >.Q 4 B ,.* ` . [ S x p x x ]   :.9 n ..| > D D , <.  ",
"C ;.1.+ A x , < & 1.| | . 9 *.q :.= > q A :.2.1.%.g # 6 P 3.d N ",
"W + #.1 8 ; & q : { r 4.{ k * 6 # # 7 , 2 D @.U %.p B 6 { =.- 5.",
"O p = + 6.7.4 #.> # 8.o 9.; D I 0 #.9 F L r >.+ e =.k 6 . W ^ #.",
"2 + { =.^ :._ #.9 & ` w 0.x D + # O i s W > f f 9 , S 6 D 1 B g ",
":.D 6 , > } = & e : 8.x P Y S g ^ , 2 p 8.s - 2 $.' I D D =.L O ",
"C & :.h  .* 9 8.q.S . 7 A w.7 & x & 6.u $.~ e.#. .g S & c r.W P ",
"R A D h t.. b X q.+ a g O.o { 7 k & 7 { =.f + D 8 : k :.r 9 & Z ",
"= 2.Y h O.t L y.# q c u.i.p.* 7 (   ` a t Y p 6 + f , > C } a.+ ",
"> > 0 < Z S S & N 9 e s.d.f.e O ; + M 2 $.r p N = W 8 q #.M g x ",
"=.U c ' h h #.^ | = U Y - ( x g.u 1 @ S g } , $.t W h.x x + ~ & ",
": g I g Z S x N # c N D 1 h S g 2 1 u ;.2.r D B w.S } & = @ { : ",
"} D x F h Q W : > r 5 D h 6.p P *.h Z x 3.% c 8.t S :.D / u B : ",
"6 . c n @.7 ( 6 > e ` S + x + P ` s.h   0 u p.o = 8 z M @.p #.f ",
"D j.k.X l., 4 >.C P z.- S z & # f.> x D 7 - ;.%.,   F ~ x.# 7 ^ ",
"t g.L ,.. - W M D W W -  .# # h H S 1.>.^ <  .D R ^ 9 # g c N c ",
"{ g _ M y u x 7 W x _ y D ( 0 = c.  U x s O O -.Z > { N D | 9 X ",
"0 D O x E -.I D 7 x v.% Y b.{ > # / h $.A & @.- x > 4.# # ..6 p.",
"$.:.W S ~ n.; p S W h p / R 6 f A : . Q a.C O - # q ` D 9 c # =.",
"D + g ~ & g , < h h W M t m.x u p : + ; g O -.Z 6 x P q 6 :  .K ",
"g ; 9 o , I :.} D ' + $.Y ; p S h   ' u C 1 -.+ 9 g # , N W W q ",
"x 7 M # =.f x : A Y O r Y -.q W p + x = W + @.y . t N x N O +   ",
"^ c s x = p O W : > x 4.M.1 f m., g : B & p + ; 1.>.D x > } = S "
};
