/* XPM */
static char *_10135a322ea40f9f7469790706f0a0eq7zEdpu55QxAy7kY[] = {
/* columns rows colors chars-per-pixel */
"32 32 190 2 ",
"   c None",
".  c #040506",
"X  c #030608",
"o  c #07090D",
"O  c #0A0C0E",
"+  c #130F0E",
"@  c #0B0D13",
"#  c #0B0E19",
"$  c #070B12",
"%  c #0E1115",
"&  c #0D131D",
"*  c #111113",
"=  c #12151B",
"-  c #1C191B",
";  c #18181D",
":  c #231917",
">  c #0E1521",
",  c #0F1824",
"<  c #131A24",
"1  c #1A1D24",
"2  c #141D2A",
"3  c #191F2A",
"4  c #101621",
"5  c #211E21",
"6  c #17202D",
"7  c #1A212D",
"8  c #1B2432",
"9  c #1F2C3B",
"0  c #232224",
"q  c #292221",
"w  c #23252C",
"e  c #2B292C",
"r  c #2A2729",
"t  c #372A24",
"y  c #212733",
"u  c #232A35",
"i  c #2B2D35",
"p  c #252C39",
"a  c #292F3A",
"s  c #2B313C",
"d  c #2A303A",
"f  c #363130",
"g  c #34363D",
"h  c #3C383B",
"j  c #3B3739",
"k  c #42332A",
"l  c #4C332A",
"z  c #413631",
"x  c #463A34",
"c  c #4B3C36",
"v  c #443E3F",
"b  c #5C453A",
"n  c #61422D",
"m  c #6C503D",
"M  c #72503F",
"N  c #283446",
"B  c #353B45",
"V  c #3E3E42",
"C  c #2C3B52",
"Z  c #303F55",
"A  c #433E41",
"S  c #3E444B",
"D  c #39465A",
"F  c #3C536F",
"G  c #3D5673",
"H  c #474345",
"J  c #594B44",
"K  c #5B514C",
"L  c #474A51",
"P  c #54555A",
"I  c #685344",
"U  c #6C584D",
"Y  c #725A4A",
"T  c #765943",
"R  c #655752",
"E  c #745F53",
"W  c #644C47",
"Q  c #7C6658",
"!  c #414F65",
"~  c #435368",
"^  c #495468",
"/  c #575B64",
"(  c #56606D",
")  c #51657C",
"_  c #676569",
"`  c #6A6E79",
"'  c #7A7271",
"]  c #81695B",
"[  c #8A6D5B",
"{  c #99635E",
"}  c #977056",
"|  c #8D6A60",
" . c #957561",
".. c #9A7962",
"X. c #987160",
"o. c #A57C65",
"O. c #A1736A",
"+. c #B37668",
"@. c #B77D70",
"#. c #A98267",
"$. c #A08777",
"%. c #B58674",
"&. c #CC916D",
"*. c #C78E7E",
"=. c #CD9970",
"-. c #D59E73",
";. c #E19F75",
":. c #E5A379",
">. c #466284",
",. c #536C89",
"<. c #557599",
"1. c #5E7C9B",
"2. c #626E80",
"3. c #627589",
"4. c #677B8E",
"5. c #677687",
"6. c #687F99",
"7. c #597EA8",
"8. c #6D8194",
"9. c #68809B",
"0. c #7B8A9D",
"q. c #778899",
"w. c #6982A0",
"e. c #778FA9",
"r. c #7B90A9",
"t. c #648BB4",
"y. c #6B95BE",
"u. c #7493B2",
"i. c #7C9BBE",
"p. c #7997B5",
"a. c #7899C0",
"s. c #7DA3CC",
"d. c #75A3D1",
"f. c #7CA7D2",
"g. c #838C99",
"h. c #89979E",
"j. c #9D9A9B",
"k. c #88888B",
"l. c #8396AC",
"z. c #8496AA",
"x. c #9A9DA4",
"c. c #8199B3",
"v. c #98A1A4",
"b. c #8DA2B5",
"n. c #8CA3BE",
"m. c #99A9B7",
"M. c #A6AEB1",
"N. c #A4B2BE",
"B. c #A8B3BE",
"V. c #B9BBB7",
"C. c #BDC4BE",
"Z. c #F1C58C",
"A. c #C7C6BC",
"S. c #D4CEBE",
"D. c #87A4C1",
"F. c #8DA7C4",
"G. c #94AFC6",
"H. c #8EB2D3",
"J. c #ABBAC5",
"K. c #A4B8C9",
"L. c #ADC2CE",
"P. c #B4C1C4",
"I. c #BCC5C5",
"U. c #B0C0CA",
"Y. c #AEC6D7",
"T. c #B2C8D4",
"R. c #C8D0C9",
"E. c #D4D2C2",
"W. c #DAD8C6",
"Q. c #C1CFD2",
"!. c #C6D2D2",
"~. c #D3DAD4",
"^. c #E4DCC4",
"/. c #EADFC3",
"(. c #E2DFCF",
"). c #E5E1C7",
"_. c #EAE1C5",
"`. c #E6E3CF",
"'. c #E9E2CA",
"]. c #EFEBCE",
"[. c #E1E3D2",
"{. c #F2EED2",
"}. c #F6F2D2",
"|. c #F9F2D3",
" X c #FDFBDA",
".X c #F5F5E6",
"XX c #FCFDE5",
"oX c #FCFEEA",
"OX c #F7F8E6",
"+X c #FEFFF2",
/* pixels */
"                                                                ",
"                                                                ",
"                                                                ",
"                            k l n T T                           ",
"  K ]  .......Q s 6     f t b o.&.=.} T                         ",
"0 J [  .#.#.o.Q d & O t - t { %.+.;.-.M b                       ",
"- x U Y [  .Q w @ X t k . l O.*.+.:.Z.m : c T I z r             ",
"  0 j j v v u i w 0 r * * 5 W [ { @.$.H w h I J x c f < < <     ",
"    1 u y u w i B g 0 1 @ @ @ < 5 i i d s s k : - 0 5 = w e 8 p ",
"    + w u u 6 7 a 1 * 7 = @ @ * 2 1 y u w       o @ & , J [ V p ",
"      * y u < * y 2 @ ; 3 y B B u a d 9 7 7 8 < & 2 3 8 B  .K   ",
"        ; 7 % % 8 8 < % < y 8 N u N p a a 6 3 2 3 7 2 p p Q |   ",
"          = o % y < 8 3 & 3 2 3 7 8 8 8 8 6 9 9 2 6 6 p p R     ",
"          O . % u = 1 8 3 < 2 2 3 3 2 2 6 6 8 8 , 2 8 u p       ",
"            . % 8 = % 7 3 2 2 3 6 6 2 2 6 6 6 6 , , 8 i         ",
"              = 6 & X = 6 8 8 2 2 2 2 2 6 6 2 6 , > 7           ",
"              < < @ X < 7 , 2 2 2 2 2 2 6 2 2 2 2 > ,           ",
"              1 < # X , 2 & > , , 2 6 2 6 8 6 6 6 > >           ",
"                3 < $ # & & > , 2 6 6 6 8 8 8 8 8 , >           ",
"                3 4 & # > > > > > 2 2 2 2 2 8 8 6 2 &           ",
"                < 4 4 # # ; 5 N P _ _ _ / S 8 3 6 6 , &         ",
"                4 > # $ 5 A _ | P D / k.j.x.g._ i < 2 ,         ",
"                > # $ 5 H 5.5._ 5.h.v.E.W.~.!.N.4.N 2 <         ",
"                X X * A 6.a.F.J.~.R.E.[.~.T.L.L.P.b.~ 2         ",
"                  X S e.a.i.J.(.~.m.I.G.p.p.c.B.S.E.J.)         ",
"                  L 0.l.p.c.J.(.Y.n.D.y.7.8.0.b.S._.'.C.8.      ",
"                    g.r.l.c.R.`.Y.s.i.t.,.3.4.M._.}. X}.W.      ",
"                  ^ ` 0.e.N.W./.!.f.t.<.) 3.v.`.{.{.}.}.}.      ",
"                  ! ~ 5.q.V.^._.!.f.y.>.( q.I.P.I.W..XoXXX).    ",
"                  D D ~ z.A.^._.L.d.t.G ,.u.e.l.C.'.|.XX+XOX    ",
"                  D Z C ,.n.G.K.H.d.t.F <.1.6.z.A./.|.XX+XOX    ",
"                  C C N D 9.s.d.d.d.7.F ,.3.6.m.W./.}.oXoXoX    "
};
