/* XPM */
static char *b2bca2a2abcb4958b9d944a4427631ceaCCcSwEMHdh4PLOx[] = {
/* columns rows colors chars-per-pixel */
"32 32 173 2 ",
"   c None",
".  c #0A0907",
"X  c #0C0C0C",
"o  c gray2",
"O  c #0E0E10",
"+  c #0F1114",
"@  c #131314",
"#  c #1C1717",
"$  c #15151A",
"%  c #17181D",
"&  c #1A1A1C",
"*  c #241E1C",
"=  c #291B19",
"-  c #2D251E",
";  c #1B1D22",
":  c #1E2025",
">  c #1E2229",
",  c #222225",
"<  c #22252C",
"1  c #282629",
"2  c #25282E",
"3  c #2A2B2E",
"4  c #2D2823",
"5  c #312A27",
"6  c #3A2B22",
"7  c #3C332D",
"8  c #222730",
"9  c #252A33",
"0  c #2A2D35",
"q  c #292F39",
"w  c #2C3037",
"e  c #2C323B",
"r  c #343437",
"t  c #3B3431",
"y  c #32353C",
"u  c #383739",
"i  c #373A3F",
"p  c #3A3A3D",
"a  c #4A3325",
"s  c #4B392C",
"d  c #553D2F",
"f  c #473D36",
"g  c #553B31",
"h  c #59422C",
"j  c #4E4038",
"k  c #4D4035",
"l  c #514034",
"z  c #534339",
"x  c #5B423A",
"c  c #6E4837",
"v  c #644F3E",
"b  c #6D523D",
"n  c #78513B",
"m  c #79583F",
"M  c #75543F",
"N  c #2E3743",
"B  c #363841",
"V  c #3A3C42",
"C  c #403D40",
"Z  c #3D434B",
"A  c #504843",
"S  c #5A4B41",
"D  c #554A47",
"F  c #5F5049",
"G  c #464E5A",
"H  c #424A52",
"J  c #5D5A5A",
"K  c #545355",
"L  c #6D4C49",
"P  c #6A5444",
"I  c #6E5B4D",
"U  c #785D48",
"Y  c #705B4D",
"T  c #655854",
"R  c #775D55",
"E  c #746153",
"W  c #596268",
"Q  c #5B6166",
"!  c #676767",
"~  c #62676F",
"^  c #6B6866",
"/  c #786F68",
"(  c #7F756F",
")  c #7A7774",
"_  c #787574",
"`  c #86634E",
"'  c #976E4E",
"]  c #906242",
"[  c #8A6E5A",
"{  c #836A59",
"}  c #8D735C",
"|  c #9C795F",
" . c #91725A",
".. c #AA6D5E",
"X. c #AF7F5C",
"o. c #9E7E63",
"O. c #A57563",
"+. c #A87F60",
"@. c #C67660",
"#. c #85807C",
"$. c #AB8464",
"%. c #AC8768",
"&. c #A28264",
"*. c #B2806F",
"=. c #B58D6A",
"-. c #BD8C6A",
";. c #C98D74",
":. c #D29975",
">. c #E4A67D",
",. c #607181",
"<. c #697481",
"1. c #78828D",
"2. c #658098",
"3. c #6F8292",
"4. c #7B8E9F",
"5. c #768694",
"6. c #718FA8",
"7. c #7F92A0",
"8. c #7B9CB9",
"9. c #918E8B",
"0. c #8B959D",
"q. c #9C9994",
"w. c #AFA89E",
"e. c #8596A0",
"r. c #8B9AA5",
"t. c #899AA9",
"y. c #9C9FA2",
"u. c #879EB2",
"i. c #8B9EB0",
"p. c #8CA5BB",
"a. c #95ABBD",
"s. c #ACADAC",
"d. c #A9B4B9",
"f. c #B6BBB7",
"g. c #E6A883",
"h. c #E3BB9B",
"j. c #DFD9BF",
"k. c #DED6BB",
"l. c #E4DDBD",
"z. c #89A7C4",
"x. c #81AAC7",
"c. c #82A5C0",
"v. c #91ABC3",
"b. c #8FB1C8",
"n. c #9BB7CA",
"m. c #9BBBCE",
"M. c #95B7D0",
"N. c #AABBC3",
"B. c #A0B6C9",
"V. c #A6B6C2",
"C. c #BDC6C8",
"Z. c #BFC8CA",
"A. c #B8C2C3",
"S. c #B6C7D0",
"D. c #B4CBD7",
"F. c #B8D1DC",
"G. c #C1CDCB",
"H. c #C2CBC5",
"J. c #C9D1C9",
"K. c #D1D2C7",
"L. c #D8D8C8",
"P. c #CBDBDA",
"I. c #D0DAD7",
"U. c #D1DDD8",
"Y. c #DAE0D1",
"T. c #EBE6CC",
"R. c #EDE7C9",
"E. c #F0E9C6",
"W. c #E2E4D5",
"Q. c #F3EFD1",
"!. c #F7F2D6",
"~. c #FAF8DF",
"^. c #F6F3D8",
/* pixels */
"                                                                ",
"                                                                ",
"                                                                ",
"                                                                ",
"                                                                ",
"                                                                ",
"                                                                ",
"                            h a h b                             ",
"          o.&.            s a n ] ' m                           ",
"t E o.%.=.=.$.} i < @ , 5 6 ` ;.:.>.$.P                         ",
"5 P  .o.$.=.$.x 1 @ - f @ d O.*...>.g.c a b                     ",
"* f Y Y [ { A , X o 7 4 X g O.;.@.>.h.x = z U P k t 3 2         ",
"  - u u u V w r       @ $ * 7 z L ` T C p f P s 7 l 7 : : < 8   ",
"    , u y r 9 w V : @ ; @ O O ; 1 1 0 y y     @ @ @ % % z S e e ",
"    # 1 r y < 1 B < $ 1 , : , ; < < 0 y 9 w     @ ; : 8 F +.D N ",
"      & 3 q ; & e 2 & ; 9 y Z H y V y y w 9 q > > 8 < e V o.E   ",
"        & 1 @ & q 9 9 ; , q q e 0 q q B N 8 8 8 8 8 9 N B [     ",
"          & X & w , q 9 : < < 9 9 9 9 0 8 8 N N < 8 0 B B       ",
"          @ X & q * 1 q < < < 9 9 9 9 8 9 N N 9 ; 8 q B         ",
"            . & 9 ; @ < 9 q 8 8 9 9 8 9 9 9 8 9 > > q           ",
"              ; < % X ; q q 8 < 8 9 8 9 9 9 8 8 > > 9           ",
"              , , + X 8 8 8 8 8 8 8 9 9 9 9 8 8 8 : <           ",
"              , , % O ; > ; ; > 8 8 q q N N 9 q e > <           ",
"              , < > $ ; ; > > 8 8 9 9 q N q N q q < :           ",
"              & < ; ; ; ; ; ; ; > 0 w w 9 9 q w q 2 :           ",
"              & > ; ; $ ; < r K ^ _ ) #.) J i 2 9 9 < :         ",
"              , ; ; $ @ 7 T } / K G W q.w.s.y._ V 2 2 <         ",
"                & @ @ 4 J <.6.<.r.d.f.T.Q.Y.P.A.4.G 2 >         ",
"                X o * Q 8.z.B.L.W.J.L.W.P.D.S.Z.H.A.~ 0         ",
"                  @ W u.p.p.Z.T.Y.N.H.m.x.p.a.A.k.l.F.3.        ",
"                  ^ r.r.t.v.Z.T.F.m.n.x.6.7.t.d.j.E.!.J.e.      ",
"                  9.0.0.t.B.K.T.F.M.b.8.2.5.e.f.R.^.~.^.Y.      "
};
