/* XPM */
static char *acc3efe62f6149e2d5b09d69e447fb3ayn8BqLXfXDF06PhG[] = {
/* columns rows colors chars-per-pixel */
"32 32 136 2 ",
"   c #3B352D",
".  c #3A3630",
"X  c #3E3A33",
"o  c #423D35",
"O  c #423F39",
"+  c #464037",
"@  c #44423B",
"#  c #48433C",
"$  c #4C483F",
"%  c #504F3F",
"&  c #444541",
"*  c #4C4740",
"=  c #474A43",
"-  c #4C4B43",
";  c #444749",
":  c #474A4A",
">  c #4B4C4B",
",  c #534D45",
"<  c #524F4A",
"1  c #495344",
"2  c #4E514D",
"3  c #515347",
"4  c #55524C",
"5  c #5A544C",
"6  c #545949",
"7  c #595D4F",
"8  c #4A4D50",
"9  c #4E5253",
"0  c #555452",
"q  c #5A5653",
"w  c #545956",
"e  c #5C5955",
"r  c #555A5B",
"t  c #5D5B5A",
"y  c #61584D",
"u  c #635D54",
"i  c #685E52",
"p  c #615E5B",
"a  c #666257",
"s  c #6B6257",
"d  c #65615D",
"f  c #6A635C",
"g  c #72685D",
"h  c #5B5E61",
"j  c #5E6365",
"k  c #5F636A",
"l  c #656363",
"z  c #6A6663",
"x  c #6D6965",
"c  c #64666A",
"v  c #686768",
"b  c #65696C",
"n  c #6C6B6C",
"m  c #736C64",
"M  c #796E63",
"N  c #726E6B",
"B  c #7A7066",
"V  c #75716D",
"C  c #7B736C",
"Z  c #666B71",
"A  c #6B6E72",
"S  c #706F70",
"D  c #6D7074",
"F  c #6E737B",
"G  c #6E747C",
"H  c #707070",
"J  c #737172",
"K  c #747272",
"L  c #757473",
"P  c #717376",
"I  c #747374",
"U  c #757475",
"Y  c #777576",
"T  c #797572",
"R  c #7A7673",
"E  c #7A7877",
"W  c #7C7976",
"Q  c #727579",
"!  c #73767A",
"~  c #757678",
"^  c #767779",
"/  c #70767D",
"(  c #75797D",
")  c #7B7A7A",
"_  c #7C7A79",
"`  c #7E7B78",
"'  c #797A7D",
"]  c #7C7B7C",
"[  c #80766C",
"{  c #83796F",
"}  c #807971",
"|  c #827970",
" . c #807B72",
".. c #827B75",
"X. c #837C77",
"o. c #867E76",
"O. c #807D7C",
"+. c #8D8275",
"@. c #8C847C",
"#. c #767A81",
"$. c #767E87",
"%. c #7B7D82",
"&. c #7F7E81",
"*. c #7C7F83",
"=. c #7B7F85",
"-. c #7C7E84",
";. c #7D8085",
":. c #7F8388",
">. c #7D838A",
",. c #838283",
"<. c #848181",
"1. c #858281",
"2. c #8B8681",
"3. c #8D8986",
"4. c #82868C",
"5. c #83878E",
"6. c #87888D",
"7. c #8C8A8A",
"8. c #938B85",
"9. c #938D8A",
"0. c #9A928A",
"q. c #858A92",
"w. c #8A8C91",
"e. c #8B8E94",
"r. c #8B9099",
"t. c #8C929A",
"y. c #949292",
"u. c #989493",
"i. c #A29A94",
"p. c #9C9DA1",
"a. c #9B9EA5",
"s. c #999FA9",
"d. c #A6A3A5",
"f. c #A8A4A2",
"g. c #A1A4AB",
"h. c #ABA9AC",
/* pixels */
"] } 2.u.e.F / F / r 0 c h c c A 4.4.c Q ( / c k #.w u ' $.F Z G ",
"*.a.y.1.` n v v N h e v c j t h I I p A n d t p Z 8 f X.S v l l ",
"v -.*.A l q p x T > < l n f q < q c e t d l x p q 8 p I l d e t ",
"x d l u m m p x c : 5 e l V e q q 0 4 0 t N ^ v p ; p [ J z t d ",
"e 4 5 4 s f i u # @ - # o @ o , , O O O O , 0 y 5 = % i g , o o ",
"4 4 2 > 3 4 $ , > w 1 2 : > 0 > h r : p y 5 t 0 u q 6 , 5 > > , ",
"n F G c n Q T X.' F 0 l l j A v n v c S M | ..S n c = x 1.O.! J ",
"e v N p p l *.S p h : p t 4 0 l p p p l X.o.M M f n p E v N v p ",
"e p l e e l x u p j > T z q p x n J p l t.s.p.] t n f ` a a u e ",
"x u e 4 5 a m M C e & x v 4 4 t d l p 4 l ,.1.N < u q @.+.+.+.f ",
"u q X 0 4 s M [ f < = 4 0 0 & # - 4 2 = @ : 2 0 : , 5 V @.C { f ",
"l A A Y M { @.9.0.6.F / -.1.A h t #.#.#.F =.>.#.' >.O.@.@.@.@.A ",
"e z ( 6.3.3.d.h.w.n L T x T l : u m p l v n J n v n q.s.g.h.i.b ",
"q a n 6.q.q.t.H 0 e n Y N v t ; e n 4 e e t p t f a n J / q.%.c ",
"u @.,.V e 0 3 4 f f 4 l u < 0 > e x 5 y i g f v X.2.T e e f J A ",
"e H D 3 + + . o 4 , O o X X X X $ 4 p s M V 4 e ^ N 4 # - > f - ",
"D $.q.( q ( / -.6.%.Z F F F c Z -.F / A < S l #.-.1.4.*.b A Z F ",
"b l l v 0 E S O.7.! S n A A c z V I ! c 3 E d c #.6.,.N v l c A ",
"t t v t 0 N l N S p p p d p e q e l ..t * d q q p c z z z p l e ",
"V I n 0 5 R x N N u q p l p e 0 t l <.j - z d d p e z ` N z N N ",
"a u 5 4 : u p e , O O u , 4 < O # # , * = , 5 u u u 3 z q 4 5 i ",
"u u - t l q 8 : : > > 0 < & - 0 9 9 r h j r v Y l v h b b t 4 , ",
"' _ Q ;.#.^ #.&.A ` Q #.#.r p ] J J W %.-.( 4.e.6.Q E ,.q.b u Y ",
"x v l e q 0 5 i p p l l p > q x p n N f t d l l d s B E n > t m ",
"C B g e 0 t v C ..J p p t 8 p x p Y N d e n n v V @.0.9.] 9 l ^ ",
"8.+.B u a M  .3.8.l , u 0 & < p 4 B C u x m I ;.7.i.u.3.f : e X.",
"g g s 5 a E _ z 0 O O < > & - 4 = q 0 # 6 5 4 e 4 5 5 < - 2 1 y ",
"_ n l 0 W ;.t.#.F Z Z >.6.#.! ! A Q #.2 a z F ,.] d D ;.;.Z ^ ) ",
"%.A l > N l p p p p l l N x l l v p p 0 g l l / ) b d z f v H 4.",
"0 d Q > f p q p p v p p n v e e e r m q M N q 0 t l m { W +.e e ",
"4 c J & i 5 4 < 5 y 4 5 4 4 < , 5 n 6.y 8.N w 4 l ) 3.0.i.,.e d ",
"o 4 # o O           o     .   o , , 4 q M 5 X X - @.u.f.0.p 5 5 "
};
