/* XPM */
static char *_461c465dc4446d6c33337c483e0a55dNGpFTqhQFg11i9W8[] = {
/* columns rows colors chars-per-pixel */
"32 32 164 2 ",
"   c #3E4D4B",
".  c #395D5F",
"X  c #37595C",
"o  c #3E5F62",
"O  c #3E7A7D",
"+  c #3B777C",
"@  c #424E4C",
"#  c #585752",
"$  c #605851",
"%  c #407175",
"&  c #507675",
"*  c #6D6A63",
"=  c #746D66",
"-  c #7F736C",
";  c #6E7570",
":  c #657D7A",
">  c #7D7A74",
",  c #0B8A73",
"<  c #0B8E7B",
"1  c #188C7F",
"2  c #67807D",
"3  c #387E83",
"4  c #1E918A",
"5  c #308E87",
"6  c #3F8589",
"7  c #2C9389",
"8  c #219E8F",
"9  c #36938F",
"0  c #3E8F93",
"q  c #2C9790",
"w  c #239E91",
"e  c #3C989C",
"r  c #10A59D",
"t  c #3B9EA6",
"y  c #16ACA9",
"u  c #1DB4B4",
"i  c #32ABAC",
"p  c #3EAEA8",
"a  c #36A4A8",
"s  c #3DB3AE",
"d  c #3FB4A4",
"f  c #2EADB2",
"g  c #3FAAB1",
"h  c #2DB9BD",
"j  c #2DB6B9",
"k  c #3CB1B4",
"l  c #34B6BA",
"z  c #3ABDBD",
"x  c #38BAB5",
"c  c #428D8D",
"v  c #538786",
"b  c #498B90",
"n  c #478C93",
"m  c #4B9194",
"M  c #459E97",
"N  c #459699",
"B  c #519E9D",
"V  c #4FA18F",
"C  c #52A88E",
"Z  c #5AB485",
"A  c #5DBB86",
"S  c #59B88D",
"D  c #42A59D",
"F  c #4EA496",
"G  c #50A290",
"H  c #57A893",
"J  c #51A89F",
"K  c #54A19D",
"L  c #4DBD9F",
"P  c #4EB693",
"I  c #5DB292",
"U  c #68B68B",
"Y  c #429AA1",
"T  c #499DA4",
"R  c #47A4A0",
"E  c #45A7AD",
"W  c #44ACAC",
"Q  c #49ABA5",
"!  c #54ADA4",
"~  c #59AFAD",
"^  c #52AEAB",
"/  c #4EB3AC",
"(  c #42B4A8",
")  c #59BDA1",
"_  c #54ACB2",
"`  c #41B7B5",
"'  c #48B7B2",
"]  c #46BBB4",
"[  c #46B2BB",
"{  c #69A5A7",
"}  c #65A2A4",
"|  c #7AB0AD",
" . c #7AB3B2",
".. c #7FBCBD",
"X. c #3EC5B8",
"o. c #5DC087",
"O. c #5BC28C",
"+. c #50C597",
"@. c #67C496",
"#. c #43C8AB",
"$. c #57C9A5",
"%. c #40C6B1",
"&. c #42C7B9",
"*. c #4DCCBC",
"=. c #41CAB3",
"-. c #2CBEC4",
";. c #3CB7C3",
":. c #41BAC3",
">. c #6CBFC1",
",. c #70BEC2",
"<. c #2DC3D0",
"1. c #41C2C0",
"2. c #5EC2C2",
"3. c #48CFD9",
"4. c #61C0C5",
"5. c #64C4C9",
"6. c #66CCCF",
"7. c #6DC2C9",
"8. c #7CC2C3",
"9. c #69D2D5",
"0. c #73D3D3",
"q. c #948B83",
"w. c #A5968E",
"e. c #A99990",
"r. c #BCA99F",
"t. c #9CAFAD",
"y. c #81BFBB",
"u. c #A1ACA8",
"i. c #B6AFA9",
"p. c #B3ABA4",
"a. c #A4B4B1",
"s. c #A6B9B7",
"d. c #ADB8B3",
"f. c #BFB9B4",
"g. c #B4BFBD",
"h. c #BEBCB9",
"j. c #C2B9B3",
"k. c #AFC1BE",
"l. c #C2C1BB",
"z. c #89C5C7",
"x. c #A9C9CB",
"c. c #B3C8C7",
"v. c #B8CFD2",
"b. c #CBCDCB",
"n. c #D2CAC4",
"m. c #DBCFC7",
"M. c #DAD2CD",
"N. c #CAD1D0",
"B. c #D8D8D6",
"V. c #DCDBD9",
"C. c #E1DAD5",
"Z. c #E5DED9",
"A. c #E6E2DF",
"S. c #DDE1E1",
"D. c #E4E4E3",
"F. c #E8E3E0",
"G. c #EAE8E7",
"H. c #EEEEEE",
"J. c #F0EEED",
"K. c #F3F1EF",
"L. c #F4F4F4",
"P. c #FBF8F7",
"I. c #F7F8F8",
"U. c #FCFCFC",
/* pixels */
"H.H.U.U.L.H.I.U.I.H.L.U.U.K.H.U.U.L.H.I.U.L.J.I.U.I.H.L.U.U.H.H.",
"H.L.I.U.L.H.I.U.L.H.L.U.U.H.H.U.U.L.L.I.U.L.H.I.U.I.L.L.U.U.H.J.",
"I.U.L.L.I.U.I.L.I.U.I.K.L.U.U.L.L.I.I.L.L.L.U.I.L.L.U.I.L.L.U.U.",
"U.U.L.H.I.U.L.H.I.U.I.H.K.U.U.H.J.U.U.L.J.I.U.L.H.L.U.I.H.L.U.U.",
"L.L.U.I.L.L.L.I.I.K.L.U.I.L.L.U.I.L.L.I.I.L.L.L.I.L.L.L.I.I.L.L.",
"H.H.U.U.L.H.I.U.I.H.L.U.U.H.K.U.U.L.H.U.U.L.H.I.U.I.H.L.U.U.H.H.",
"I.L.L.L.I.I.I.L.I.I.L.L.L.L.I.L.L.I.I.L.L.I.I.I.L.I.I.I.L.L.L.I.",
"U.U.J.H.U.U.L.H.I.U.I.H.L.U.U.H.J.U.U.L.H.I.U.I.H.L.U.I.H.L.U.U.",
"I.I.L.I.L.L.I.I.L.L.L.I.L.I.L.I.L.L.I.L.L.L.I.L.L.I.I.I.I.I.I.I.",
"J.H.U.U.L.H.I.U.I.L.L.U.U.H.L.U.U.K.J.U.U.L.H.I.U.I.G.L.U.U.J.G.",
"L.L.I.I.L.L.I.G.b.f.Z.I.K.N.l.m.L.L.L.I.U.L.L.I.U.I.L.L.I.I.L.L.",
"U.U.K.L.U.U.S.>.] m = M.x.&.W & q.L.U.L.H.I.U.I.G.F.L.P.J.L.U.U.",
"U.I.L.L.I.J.8.#.A R   p.d.&.A D @ l.P.P.J.I.U.D.z.} > V.L.L.I.U.",
"H.L.U.U.L.x.=.A C O O ~ : ` o.V % q.h.h.f.b.j...%.p . e.U.U.L.H.",
"K.L.I.U.D.>.+.Z 0 + #.P E &.A D z ( k s W ' N &.Z d e # C.I.H.K.",
"U.U.L.K.v.*.@.M + ` @.G T *.U H ( x x L $.Z <.$.I ) F o w.L.U.U.",
"U.U.K.J.z.9.y.n Y 9.y.b Y 0.|  .[ 4._ ;.6._ 3.z.z.5.:.0 # A.U.U.",
"K.K.P.L.7.' B [ z ! B n l ! W / J ! E <./ D ^ K Q s W + - K.L.L.",
"H.K.U.L.4.w 7 u q 7 5 h w 9 t l i 0 2 { l i f f j i c * C.U.H.H.",
"U.U.L.H.z.r , 1 a y , < 4 3 = g.a.p.Z.A.c.d.k.t.u.a.p.A.L.L.U.I.",
"U.U.L.H.S.,.k n ;  .k a v q.Z.J.H.U.U.L.J.U.U.L.G.I.U.I.G.L.U.U.",
"L.L.I.I.L.G.B.n.Z.H.V.M.M.J.L.I.L.L.L.I.I.L.L.L.U.I.L.L.I.I.L.L.",
"H.H.U.U.L.H.I.U.I.H.L.U.U.K.L.U.U.K.H.U.U.L.H.I.U.I.H.L.U.U.J.H.",
"I.I.L.I.I.I.I.L.L.I.I.I.L.L.L.L.I.I.L.L.I.I.L.I.I.I.I.I.I.L.L.I.",
"U.U.L.H.I.U.L.J.I.U.I.H.L.U.U.L.J.U.U.L.H.U.U.L.H.L.U.U.H.L.U.U.",
"I.I.I.L.L.I.L.L.I.I.I.L.L.I.I.L.L.I.I.I.L.I.I.L.L.L.L.L.L.L.I.I.",
"J.H.U.U.L.H.I.U.I.H.L.U.U.J.J.U.U.L.H.I.U.L.H.I.U.I.J.L.U.U.J.H.",
"L.L.I.I.L.L.I.U.L.L.L.I.I.L.L.I.I.L.L.I.U.L.L.L.U.L.L.L.I.I.L.L.",
"U.U.L.H.L.U.L.H.I.U.I.H.H.U.U.H.J.U.U.L.H.I.U.I.H.L.U.I.K.H.U.U.",
"U.I.L.L.I.U.L.L.L.U.I.L.L.U.U.L.L.I.I.L.L.I.U.I.L.I.U.I.L.L.U.U.",
"L.H.U.U.L.H.L.U.I.H.L.U.U.H.K.U.U.L.K.I.U.L.J.I.U.I.H.L.U.U.L.H.",
"H.H.I.U.L.L.I.U.I.H.L.U.U.H.L.U.U.K.H.U.U.L.H.I.U.I.H.L.U.I.H.H."
};
